<svg version="1.1" preserveAspectRatio="none" xmlns="http://www.w3.org/2000/svg" xmlns:xlink="http://www.w3.org/1999/xlink" x="0px" y="0px"
	 viewBox="0 0 1921 478">
	 <defs>
		<style type="text/css">
			.svgs {
				fill: #FFFFFF;
			}
		</style>
	</defs>
<path fill-rule="evenodd" class="svgs" clip-rule="evenodd" d="M0,54.9c0,0,49.7-60.8,110.5,0s118.3,120.7,239,0
	c0,0,110.1-115.9,226,0c0,0,87.8,130.2,218,0c0,0,97.9-112.1,210,0c0,0,105.7,89.3,195,0c0,0,83.5-123.5,207,0c0,0,92.3,106.7,199,0
	c0,0,100.1-102.9,203,0c0,0,58.1,55.9,114,0v359c0,0-43-57-100,0c0,0-99.6,105.4-205,0c0,0-93.4-125.6-219,0c0,0-67.1,124.9-192,0
	c0,0-103.9-111.1-215,0c0,0-147.1,134.9-282,0c0,0-133.9-129.1-263,0c0,0-152.6,142.4-295,0c0,0-70.5-80-150.5,0V54.9z"/>
</svg>